<?xml version="1.0" encoding="utf-8"?>
<!-- Generator: Adobe Illustrator 19.1.0, SVG Export Plug-In . SVG Version: 6.00 Build 0)  -->
<svg version="1.1" id="Layer_1" xmlns="http://www.w3.org/2000/svg" xmlns:xlink="http://www.w3.org/1999/xlink" x="0px" y="0px"
	 viewBox="0 0 13.9 13.9" style="enable-background:new 0 0 13.9 13.9;" xml:space="preserve">
<style type="text/css">
	.st0{fill:#969AA2;}
</style>
<path class="st0" d="M11.7,13.5l-3.6-3.3c-0.8,0.4-1.7,0.7-2.6,0.7c-3,0-5.4-2.4-5.4-5.4C0,2.4,2.4,0,5.4,0c3,0,5.4,2.4,5.4,5.4
	c0,1.1-0.3,2.1-0.9,3l3.4,3.2c0.3,0.2,0.5,0.6,0.5,1c0,0.7-0.6,1.3-1.3,1.3C12.2,13.9,11.9,13.7,11.7,13.5L11.7,13.5z M1.7,5.4
	c0,2,1.7,3.7,3.7,3.7c2,0,3.7-1.7,3.7-3.7S7.5,1.7,5.4,1.7C3.4,1.7,1.7,3.4,1.7,5.4z"/>
</svg>
